<svg width="505.80400390625px" height="122px" xmlns="http://www.w3.org/2000/svg" viewBox="-2.9020019531249943 14 505.80400390625 122" style="background: rgba(0, 0, 0, 0);" preserveAspectRatio="xMidYMid"><defs><filter id="editing-metal-beveled"><feGaussianBlur stdDeviation="4" in="SourceAlpha" result="blur"></feGaussianBlur><feSpecularLighting surfaceScale="5" specularConstant="0.8" specularExponent="7.5" lighting-color="#fff" in="blur" result="specular"><fePointLight x="-250" y="-50" z="300"></fePointLight></feSpecularLighting><feComposite operator="in" in="specular" in2="SourceAlpha" result="comp"></feComposite><feComposite in="SourceGraphic" in2="comp" operator="arithmetic" k1="0" k2="1" k3="1" k4="0"></feComposite></filter></defs><g filter="url(#editing-metal-beveled)"><g transform="translate(72.38766965270042, 97.46500015258789)"><path d="M24.96-4.80L24.96-4.80L24.96-4.80Q24.96-9.28 26.75-18.24L26.75-18.24L17.28-18.24L13.76 0L0.38 0L8.51-42.24L22.02-42.24L18.30-23.36L27.78-23.36L31.30-42.24L44.80-42.24L44.80-42.24Q43.90-37.50 42.75-32.19L42.75-32.19L40.58-21.76L40.58-21.76Q38.14-9.60 38.14-4.29L38.14-4.29L38.14-4.29Q38.14-2.11 38.85-0.90L38.85-0.90L38.85-0.90Q35.65 1.28 31.90 1.28L31.90 1.28L31.90 1.28Q28.16 1.28 26.56-0.51L26.56-0.51L26.56-0.51Q24.96-2.30 24.96-4.80ZM51.46-31.17L51.46-31.17L51.46-31.17Q49.28-32.83 49.28-36.38L49.28-36.38L49.28-36.38Q49.28-39.94 51.62-41.79L51.62-41.79L51.62-41.79Q53.95-43.65 57.98-43.65L57.98-43.65L57.98-43.65Q60.54-43.65 66.62-42.75L66.62-42.75L70.98-42.11L70.98-42.11Q73.15-41.86 75.42-41.86L75.42-41.86L75.42-41.86Q77.70-41.86 79.23-42.82L79.23-42.82L79.23-42.82Q81.54-40.77 81.54-37.82L81.54-37.82L81.54-37.82Q81.54-34.88 78.91-32.77L78.91-32.77L78.91-32.77Q76.22-30.53 72.77-30.53L72.77-30.53L72.77-30.53Q71.10-30.53 68.42-30.98L68.42-30.98L68.42-30.98Q65.28-21.12 65.28-14.27L65.28-14.27L65.28-14.27Q65.28-7.42 68.74-3.84L68.74-3.84L68.74-3.84Q67.14-0.96 64.77 0.16L64.77 0.16L64.77 0.16Q62.40 1.28 58.85 1.28L58.85 1.28L58.85 1.28Q55.30 1.28 53.09-0.67L53.09-0.67L53.09-0.67Q50.88-2.62 50.88-6.66L50.88-6.66L50.88-6.66Q50.88-11.33 53.44-19.01L53.44-19.01L53.44-19.01Q56-26.62 59.84-32.45L59.84-32.45L59.84-32.45Q57.98-32.64 56.06-32.64L56.06-32.64L56.06-32.64Q52.10-32.64 51.46-31.17ZM84.93 0L77.57 0L89.15-42.24L102.53-42.24L105.47-18.11L117.38-42.24L128.58-42.24L129.73-10.62L129.73-10.62Q129.98-4.35 133.06-2.43L133.06-2.43L133.06-2.43Q132.35-1.15 130.30 0.06L130.30 0.06L130.30 0.06Q128.26 1.28 125.54 1.28L125.54 1.28L125.54 1.28Q122.82 1.28 121.22 0.51L121.22 0.51L121.22 0.51Q119.62-0.26 118.72-1.54L118.72-1.54L118.72-1.54Q117.12-3.84 117.12-8.26L117.12-8.26L117.12-28.03L104.51 0L96.58 0L92.10-28.74L84.93 0ZM162.56-9.86L162.56-9.86L162.56-9.86Q163.78-8.32 163.78-5.34L163.78-5.34L163.78-5.34Q163.78-2.37 161.50-0.54L161.50-0.54L161.50-0.54Q159.23 1.28 155.26 1.28L155.26 1.28L155.26 1.28Q152.96 1.28 149.38 0.77L149.38 0.77L149.38 0.77Q142.34-0.32 140.32-0.32L140.32-0.32L140.32-0.32Q138.30-0.32 137.47-0.22L137.47-0.22L137.47-0.22Q136.64-0.13 135.30 0L135.30 0L143.04-42.24L157.06-42.24L150.66-7.04L150.66-7.04Q151.49-6.91 152.26-6.91L152.26-6.91L153.86-6.91L153.86-6.91Q159.23-6.91 162.56-9.86ZM208-1.09L208-1.09L208-1.09Q202.30 1.28 195.33 1.28L195.33 1.28L195.33 1.28Q189.18 1.28 185.02-1.92L185.02-1.92L185.02-1.92Q180.48-5.31 180.48-11.33L180.48-11.33L180.48-11.33Q180.48-20.22 191.17-22.72L191.17-22.72L191.17-22.72Q189.38-27.78 189.38-31.30L189.38-31.30L189.38-31.30Q189.38-34.82 190.72-37.09L190.72-37.09L190.72-37.09Q192.06-39.36 194.37-40.83L194.37-40.83L194.37-40.83Q198.72-43.52 206.02-43.52L206.02-43.52L206.02-43.52Q211.07-43.52 214.27-41.60L214.27-41.60L214.27-41.60Q217.54-39.62 217.54-36.67L217.54-36.67L217.54-36.67Q217.54-33.34 215.23-31.49L215.23-31.49L215.23-31.49Q213.18-29.76 209.79-29.76L209.79-29.76L209.79-29.76Q207.81-29.76 207.17-29.95L207.17-29.95L207.17-29.95Q207.42-31.36 207.42-33.66L207.42-33.66L207.42-33.66Q207.42-35.97 206.66-37.54L206.66-37.54L206.66-37.54Q205.89-39.10 204.61-39.10L204.61-39.10L204.61-39.10Q202.24-39.10 201.34-37.02L201.34-37.02L201.34-37.02Q200.45-34.94 200.45-31.90L200.45-31.90L200.45-31.90Q200.45-28.86 201.06-26.08L201.06-26.08L201.06-26.08Q201.66-23.30 202.82-20.61L202.82-20.61L202.82-20.61Q205.25-15.04 209.15-11.26L209.15-11.26L209.15-11.26Q210.18-13.76 210.30-17.66L210.30-17.66L210.30-17.66Q210.30-21.12 207.94-23.17L207.94-23.17L207.94-23.17Q208.83-24 210.56-24.51L210.56-24.51L210.56-24.51Q212.29-25.02 213.82-25.02L213.82-25.02L213.82-25.02Q217.22-25.02 218.82-22.98L218.82-22.98L218.82-22.98Q220.42-20.93 220.42-17.66L220.42-17.66L220.42-17.66Q220.42-11.84 216.26-7.04L216.26-7.04L216.26-7.04Q217.86-6.59 219.33-6.59L219.33-6.59L219.33-6.59Q222.53-6.59 223.55-7.42L223.55-7.42L223.55-7.42Q224.06-6.21 224.06-4.61L224.06-4.61L224.06-4.61Q224.06-1.41 221.98-0.06L221.98-0.06L221.98-0.06Q219.90 1.28 216.19 1.28L216.19 1.28L216.19 1.28Q212.48 1.28 208-1.09ZM193.34-17.86L193.34-17.86L193.34-17.86Q191.94-16.45 191.94-13.95L191.94-13.95L191.94-13.95Q191.94-11.46 192.51-9.89L192.51-9.89L192.51-9.89Q193.09-8.32 193.98-7.17L193.98-7.17L193.98-7.17Q196.03-4.67 198.72-4.67L198.72-4.67L198.72-4.67Q201.15-4.67 202.56-5.18L202.56-5.18L202.56-5.18Q197.18-10.24 193.34-17.86ZM274.75-13.25L274.75-13.25L274.75-13.25Q276.42-12.03 276.42-9.44L276.42-9.44L276.42-9.44Q276.42-6.85 275.30-5.02L275.30-5.02L275.30-5.02Q274.18-3.20 272-1.79L272-1.79L272-1.79Q267.33 1.22 259.17 1.22L259.17 1.22L259.17 1.22Q251.01 1.22 246.56-3.04L246.56-3.04L246.56-3.04Q242.11-7.30 242.11-14.85L242.11-14.85L242.11-14.85Q242.11-25.54 247.68-33.66L247.68-33.66L247.68-33.66Q251.90-39.68 259.46-42.24L259.46-42.24L259.46-42.24Q263.36-43.52 267.20-43.52L267.20-43.52L267.20-43.52Q271.04-43.52 273.41-43.01L273.41-43.01L273.41-43.01Q275.78-42.50 277.57-41.47L277.57-41.47L277.57-41.47Q281.47-39.23 281.47-35.65L281.47-35.65L281.47-35.65Q281.47-32.38 278.40-29.95L278.40-29.95L278.40-29.95Q275.58-27.78 273.28-27.78L273.28-27.78L273.28-27.78Q270.98-27.78 270.02-28.10L270.02-28.10L270.02-28.10Q270.27-30.40 270.27-31.90L270.27-31.90L270.27-31.90Q270.27-33.41 270.21-34.50L270.21-34.50L270.21-34.50Q270.14-35.58 269.82-36.61L269.82-36.61L269.82-36.61Q269.18-38.98 267.23-38.98L267.23-38.98L267.23-38.98Q265.28-38.98 263.33-37.15L263.33-37.15L263.33-37.15Q261.38-35.33 259.71-32.26L259.71-32.26L259.71-32.26Q255.94-25.28 255.94-17.02L255.94-17.02L255.94-17.02Q255.94-13.06 258.18-10.78L258.18-10.78L258.18-10.78Q260.42-8.51 265.22-8.51L265.22-8.51L265.22-8.51Q268.80-8.51 272.19-10.88L272.19-10.88L272.19-10.88Q273.66-11.90 274.75-13.25ZM306.69-29.57L306.69-29.57L306.69-29.57Q307.65-31.49 307.65-33.28L307.65-33.28L307.65-33.28Q307.65-35.07 307.46-36.06L307.46-36.06L307.46-36.06Q307.26-37.06 306.82-37.82L306.82-37.82L306.82-37.82Q305.86-39.49 303.94-39.49L303.94-39.49L303.94-39.49Q301.57-39.49 299.65-37.76L299.65-37.76L299.65-37.76Q297.60-35.97 297.60-33.15L297.60-33.15L297.60-33.15Q297.60-31.36 298.85-29.98L298.85-29.98L298.85-29.98Q300.10-28.61 302.02-27.33L302.02-27.33L302.02-27.33Q303.94-26.05 306.11-24.77L306.11-24.77L306.11-24.77Q308.29-23.49 310.21-21.95L310.21-21.95L310.21-21.95Q314.62-18.43 314.62-13.70L314.62-13.70L314.62-13.70Q314.62-10.50 312.93-7.78L312.93-7.78L312.93-7.78Q311.23-5.06 308.42-3.07L308.42-3.07L308.42-3.07Q302.27 1.28 294.14 1.28L294.14 1.28L294.14 1.28Q287.55 1.28 284.16-0.86L284.16-0.86L284.16-0.86Q280.77-3.01 280.77-6.27L280.77-6.27L280.77-6.27Q280.77-12.10 285.31-13.57L285.31-13.57L285.31-13.57Q286.59-14.02 288.54-14.02L288.54-14.02L288.54-14.02Q290.50-14.02 292.74-13.18L292.74-13.18L292.74-13.18Q291.71-10.56 291.71-8.19L291.71-8.19L291.71-8.19Q291.71-3.07 295.36-3.07L295.36-3.07L295.36-3.07Q297.73-3.07 299.68-4.80L299.68-4.80L299.68-4.80Q301.63-6.53 301.63-8.48L301.63-8.48L301.63-8.48Q301.63-10.43 300.38-11.84L300.38-11.84L300.38-11.84Q299.14-13.25 297.28-14.37L297.28-14.37L297.28-14.37Q295.42-15.49 293.28-16.58L293.28-16.58L293.28-16.58Q291.14-17.66 289.28-19.20L289.28-19.20L289.28-19.20Q284.93-22.72 284.93-28.35L284.93-28.35L284.93-28.35Q284.93-32 286.72-34.85L286.72-34.85L286.72-34.85Q288.51-37.70 291.39-39.62L291.39-39.62L291.39-39.62Q297.15-43.52 304.22-43.52L304.22-43.52L304.22-43.52Q311.30-43.52 314.72-41.41L314.72-41.41L314.72-41.41Q318.14-39.30 318.14-35.71L318.14-35.71L318.14-35.71Q318.14-32.58 315.71-30.59L315.71-30.59L315.71-30.59Q313.60-28.93 311.04-28.93L311.04-28.93L311.04-28.93Q308.48-28.93 306.69-29.57ZM344.45-29.57L344.45-29.57L344.45-29.57Q345.41-31.49 345.41-33.28L345.41-33.28L345.41-33.28Q345.41-35.07 345.22-36.06L345.22-36.06L345.22-36.06Q345.02-37.06 344.58-37.82L344.58-37.82L344.58-37.82Q343.62-39.49 341.70-39.49L341.70-39.49L341.70-39.49Q339.33-39.49 337.41-37.76L337.41-37.76L337.41-37.76Q335.36-35.97 335.36-33.15L335.36-33.15L335.36-33.15Q335.36-31.36 336.61-29.98L336.61-29.98L336.61-29.98Q337.86-28.61 339.78-27.33L339.78-27.33L339.78-27.33Q341.70-26.05 343.87-24.77L343.87-24.77L343.87-24.77Q346.05-23.49 347.97-21.95L347.97-21.95L347.97-21.95Q352.38-18.43 352.38-13.70L352.38-13.70L352.38-13.70Q352.38-10.50 350.69-7.78L350.69-7.78L350.69-7.78Q348.99-5.06 346.18-3.07L346.18-3.07L346.18-3.07Q340.03 1.28 331.90 1.28L331.90 1.28L331.90 1.28Q325.31 1.28 321.92-0.86L321.92-0.86L321.92-0.86Q318.53-3.01 318.53-6.27L318.53-6.27L318.53-6.27Q318.53-12.10 323.07-13.57L323.07-13.57L323.07-13.57Q324.35-14.02 326.30-14.02L326.30-14.02L326.30-14.02Q328.26-14.02 330.50-13.18L330.50-13.18L330.50-13.18Q329.47-10.56 329.47-8.19L329.47-8.19L329.47-8.19Q329.47-3.07 333.12-3.07L333.12-3.07L333.12-3.07Q335.49-3.07 337.44-4.80L337.44-4.80L337.44-4.80Q339.39-6.53 339.39-8.48L339.39-8.48L339.39-8.48Q339.39-10.43 338.14-11.84L338.14-11.84L338.14-11.84Q336.90-13.25 335.04-14.37L335.04-14.37L335.04-14.37Q333.18-15.49 331.04-16.58L331.04-16.58L331.04-16.58Q328.90-17.66 327.04-19.20L327.04-19.20L327.04-19.20Q322.69-22.72 322.69-28.35L322.69-28.35L322.69-28.35Q322.69-32 324.48-34.85L324.48-34.85L324.48-34.85Q326.27-37.70 329.15-39.62L329.15-39.62L329.15-39.62Q334.91-43.52 341.98-43.52L341.98-43.52L341.98-43.52Q349.06-43.52 352.48-41.41L352.48-41.41L352.48-41.41Q355.90-39.30 355.90-35.71L355.90-35.71L355.90-35.71Q355.90-32.58 353.47-30.59L353.47-30.59L353.47-30.59Q351.36-28.93 348.80-28.93L348.80-28.93L348.80-28.93Q346.24-28.93 344.45-29.57Z" fill="#444"></path></g></g><style>text {
  font-size: 64px;
  font-family: Arial Black;
  dominant-baseline: central;
  text-anchor: middle;
}</style></svg>